<?xml version="1.0" encoding="UTF-8"?>
<!DOCTYPE svg PUBLIC "-//W3C//DTD SVG 1.1//EN" "http://www.w3.org/Graphics/SVG/1.1/DTD/svg11.dtd">
<!-- Creator: CorelDRAW -->
<svg xmlns="http://www.w3.org/2000/svg" xml:space="preserve" width="486px" height="486px" version="1.1" style="shape-rendering:geometricPrecision; text-rendering:geometricPrecision; image-rendering:optimizeQuality; fill-rule:evenodd; clip-rule:evenodd"
viewBox="0 0 317.81 317.81"
 xmlns:xlink="http://www.w3.org/1999/xlink"
 xmlns:xodm="http://www.corel.com/coreldraw/odm/2003">
 <defs>
  <style type="text/css">
   <![CDATA[
    .fil0 {fill:#E6E7E8}
   ]]>
  </style>
 </defs>
 <g id="Layer_x0020_1">
  <metadata id="CorelCorpID_0Corel-Layer"/>
  <path class="fil0" d="M192.83 38.95c9.47,2.67 18.48,6.44 26.89,11.15 34.72,-22.08 32.69,-22.41 51.55,-3.56 18.85,18.86 18.53,16.84 -3.56,51.54 4.71,8.42 8.48,17.43 11.15,26.9 40.15,8.92 38.95,7.27 38.95,33.93 0,26.65 1.2,25 -38.95,33.92 -2.67,9.47 -6.44,18.48 -11.15,26.89 22.09,34.72 22.41,32.69 3.56,51.55 -18.86,18.85 -16.83,18.53 -51.54,-3.56 -8.41,4.71 -17.43,8.48 -26.9,11.15 -8.92,40.15 -7.27,38.95 -33.92,38.95 -26.66,0 -25.01,1.2 -33.93,-38.95 -9.47,-2.67 -18.48,-6.44 -26.89,-11.15 -34.71,22.09 -32.69,22.41 -51.55,3.56 -18.85,-18.86 -18.52,-16.84 3.56,-51.54 -4.71,-8.41 -8.48,-17.43 -11.15,-26.9 -40.15,-8.92 -38.95,-7.27 -38.95,-33.92 0,-26.66 -1.2,-25.01 38.95,-33.93 2.67,-9.47 6.44,-18.48 11.15,-26.89 -22.08,-34.71 -22.41,-32.69 -3.56,-51.55 18.86,-18.85 16.84,-18.52 51.54,3.56 8.42,-4.71 17.43,-8.48 26.9,-11.15 8.92,-40.15 7.27,-38.95 33.93,-38.95 26.65,0 25,-1.2 33.92,38.95zm-33.92 51.46c37.82,0 68.49,30.67 68.49,68.5 0,37.82 -30.67,68.49 -68.49,68.49 -37.83,0 -68.5,-30.67 -68.5,-68.49 0,-37.83 30.67,-68.5 68.5,-68.5z"/>
 </g>
</svg>
