<?xml version="1.0" encoding="UTF-8"?>
<!DOCTYPE svg PUBLIC "-//W3C//DTD SVG 1.1//EN" "http://www.w3.org/Graphics/SVG/1.1/DTD/svg11.dtd">
<!-- Creator: CorelDRAW -->
<svg xmlns="http://www.w3.org/2000/svg" xml:space="preserve" width="2792px" height="591px" version="1.1" style="shape-rendering:geometricPrecision; text-rendering:geometricPrecision; image-rendering:optimizeQuality; fill-rule:evenodd; clip-rule:evenodd"
viewBox="0 0 2791 590.72"
 xmlns:xlink="http://www.w3.org/1999/xlink"
 xmlns:xodm="http://www.corel.com/coreldraw/odm/2003">
 <defs>
  <style type="text/css">
   <![CDATA[
    .fil1 {fill:#E6E7E8}
    .fil0 {fill:#E6E7E8;fill-rule:nonzero}
   ]]>
  </style>
 </defs>
 <g id="Layer_x0020_1">
  <metadata id="CorelCorpID_0Corel-Layer"/>
  <g id="_2414254962112">
   <path class="fil0" d="M0 504.21l0 -417.7 180.8 0c37.39,0 69.62,6.07 96.67,18.2 27.05,12.14 47.93,29.54 62.65,52.21 14.72,22.68 22.08,49.73 22.08,81.16 0,31.02 -7.36,57.88 -22.08,80.55 -14.72,22.68 -35.6,40.08 -62.65,52.21 -27.05,12.14 -59.28,18.2 -96.67,18.2l-127.1 0 42.97 -43.56 0 158.73 -96.67 0zm96.67 -147.99l-42.97 -45.94 121.73 0c29.84,0 52.11,-6.37 66.83,-19.1 14.72,-12.73 22.08,-30.43 22.08,-53.1 0,-23.08 -7.36,-40.98 -22.08,-53.71 -14.72,-12.73 -36.99,-19.09 -66.83,-19.09l-121.73 0 42.97 -45.95 0 236.89zm334.15 147.99l0 -417.7 180.8 0c37.39,0 69.62,6.07 96.67,18.2 27.05,12.14 47.93,29.54 62.65,52.21 14.72,22.68 22.08,49.73 22.08,81.16 0,31.02 -7.36,57.78 -22.08,80.25 -14.72,22.48 -35.6,39.68 -62.65,51.62 -27.05,11.93 -59.28,17.9 -96.67,17.9l-127.1 0 42.97 -42.37 0 158.73 -96.67 0zm265.53 0l-104.42 -151.57 103.23 0 105.61 151.57 -104.42 0zm-168.86 -147.99l-42.97 -45.35 121.73 0c29.84,0 52.11,-6.46 66.83,-19.39 14.72,-12.93 22.08,-30.73 22.08,-53.4 0,-23.08 -7.36,-40.98 -22.08,-53.71 -14.72,-12.73 -36.99,-19.09 -66.83,-19.09l-121.73 0 42.97 -45.95 0 236.89zm1022.37 147.99l0 -62.66 258.37 -311.48 11.94 35.21 -265.53 0 0 -78.77 351.45 0 0 62.66 -257.77 311.48 -11.94 -35.21 278.07 0 0.59 78.77 -365.18 0zm400.39 0l0 -62.66 258.37 -311.48 11.93 35.21 -265.53 0 0 -78.77 351.46 0 0 62.66 -257.78 311.48 -11.93 -35.21 278.06 0 0.6 78.77 -365.18 0zm372.34 0l186.17 -417.7 95.47 0 186.77 417.7 -101.44 0 -152.75 -368.77 38.19 0 -153.36 368.77 -99.05 0zm93.09 -89.51l25.65 -73.39 214.82 0 26.25 73.39 -266.72 0z"/>
   <path class="fil1" d="M1187.61 0c42.28,0 82.48,8.9 118.85,24.91l-55.63 55.62c-20.04,-5.89 -41.26,-9.06 -63.22,-9.06 -123.65,0 -223.89,100.24 -223.89,223.89 0,48.93 15.7,94.19 42.33,131.02l347.12 -347.12 0 0.01 16.5 -16.5c68.97,54.07 113.3,138.15 113.3,232.59 0,163.12 -132.24,295.36 -295.36,295.36 -42.28,0 -82.48,-8.9 -118.85,-24.91l55.63 -55.62c20.05,5.89 41.26,9.06 63.22,9.06 123.65,0 223.89,-100.24 223.89,-223.89 0,-48.93 -15.7,-94.19 -42.33,-131.02l-312.58 312.58 -34.54 34.54 -16.5 16.49c-68.98,-54.06 -113.3,-138.15 -113.3,-232.59 0,-163.12 132.24,-295.36 295.36,-295.36z"/>
  </g>
 </g>
</svg>
