<?xml version="1.0" encoding="UTF-8"?>
<!DOCTYPE svg PUBLIC "-//W3C//DTD SVG 1.1//EN" "http://www.w3.org/Graphics/SVG/1.1/DTD/svg11.dtd">
<!-- Creator: CorelDRAW -->
<svg xmlns="http://www.w3.org/2000/svg" xml:space="preserve" width="550px" height="777px" version="1.1" style="shape-rendering:geometricPrecision; text-rendering:geometricPrecision; image-rendering:optimizeQuality; fill-rule:evenodd; clip-rule:evenodd"
viewBox="0 0 442.5 625.4"
 xmlns:xlink="http://www.w3.org/1999/xlink"
 xmlns:xodm="http://www.corel.com/coreldraw/odm/2003">
 <defs>
  <style type="text/css">
   <![CDATA[
    .fil0 {fill:#E6E7E8;fill-rule:nonzero}
   ]]>
  </style>
 </defs>
 <g id="Layer_x0020_1">
  <metadata id="CorelCorpID_0Corel-Layer"/>
  <path class="fil0" d="M34.13 146.09c-36.3,-25.53 -45.02,-75.66 -19.49,-111.96 25.53,-36.3 75.65,-45.02 111.95,-19.49l248.35 175.35c16.62,11.74 30.24,25.42 40.8,40.37 17.84,25.28 26.76,53.56 26.76,82.34 0,28.78 -8.92,57.06 -26.76,82.34 -10.56,14.95 -24.18,28.63 -40.8,40.37l-248.35 175.35c-36.3,25.53 -86.42,16.8 -111.95,-19.5 -25.53,-36.29 -16.81,-86.42 19.49,-111.95l235.97 -166.61 -235.97 -166.61z"/>
 </g>
</svg>
